<svg xmlns="http://www.w3.org/2000/svg" viewBox="0 0 430.12 267.63"><defs><style>.cls-1{fill:#fff;}</style></defs><title>behance</title><g id="Camada_2" data-name="Camada 2"><g id="Capa_1" data-name="Capa 1"><path id="Behance" class="cls-1" d="M388.43,37.87H280.66V11.1H388.44V37.87ZM208.91,147.65q10.44,16.15,10.43,39.2c0,15.88-3.92,30.12-11.89,42.71a74.28,74.28,0,0,1-18.93,21A73.29,73.29,0,0,1,158.32,264a186.33,186.33,0,0,1-37.79,3.62H0V0H129.25c32.58.53,55.68,10,69.32,28.51q12.27,17.05,12.23,40.86c0,16.37-4.1,29.46-12.36,39.41q-6.9,8.35-20.38,15.22C191.68,129,202,136.84,208.91,147.65ZM61.72,105.51h56.63c11.64,0,21.05-2.21,28.3-6.63S157.5,86.62,157.5,75.35c0-12.45-4.78-20.71-14.37-24.69-8.25-2.76-18.8-4.19-31.6-4.19H61.72ZM163,183c0-13.9-5.68-23.52-17-28.67-6.34-2.93-15.29-4.43-26.76-4.54H61.72v71.32h56.56c11.62,0,20.61-1.52,27.1-4.69C157.08,210.62,163,199.51,163,183Zm265.47-43.54c1.3,8.75,1.89,21.46,1.65,38.06H290.49q1.15,28.9,20,40.45c7.61,4.84,16.83,7.2,27.63,7.2,11.39,0,20.67-2.88,27.81-8.8a41.62,41.62,0,0,0,10.3-13.15h51.16c-1.34,11.38-7.5,22.92-18.57,34.65q-25.73,28-72.1,28-38.28,0-67.53-23.6T240,165.5q0-49.89,26.38-76.43C284.05,71.32,306.85,62.48,335,62.48q25,0,45.08,9t33.09,28.39C421,111.25,426.06,124.45,428.42,139.49Zm-50.36,5q-1.41-20-13.39-30.29T335,103.81c-12.88,0-22.83,3.71-29.9,11S293.51,132,291.69,144.48Z"/></g></g></svg>