<?xml version="1.0" encoding="utf-8"?>
<!-- Generator: Adobe Illustrator 23.0.3, SVG Export Plug-In . SVG Version: 6.00 Build 0)  -->
<svg version="1.1" id="Camada_1" xmlns="http://www.w3.org/2000/svg" xmlns:xlink="http://www.w3.org/1999/xlink" x="0px" y="0px"
	 viewBox="0 0 25 25" style="enable-background:new 0 0 25 25;" xml:space="preserve">
<style type="text/css">
	.st0{fill:#10223C;}
</style>
<g id="linkedin">
	<path class="st0" d="M808.6-362.3v184.9H701.4v-172.5c0-43.3-15.5-72.9-54.3-72.9c-29.6,0-47.2,19.9-55,39.2
		c-2.8,6.9-3.6,16.5-3.6,26.1v180H481.4c0,0,1.4-292.1,0-322.4h107.1v45.7c-0.2,0.3-0.5,0.7-0.7,1h0.7v-1
		c14.2-21.9,39.7-53.3,96.6-53.3C755.7-507.4,808.6-461.3,808.6-362.3L808.6-362.3z M369.2-655.2c-36.7,0-60.7,24.1-60.7,55.7
		c0,30.9,23.3,55.7,59.2,55.7h0.8c37.4,0,60.6-24.8,60.6-55.7C428.4-631.2,405.9-655.2,369.2-655.2z M314.9-177.4h107.2v-322.4
		H314.9V-177.4z"/>
</g>
<g id="linkedin_1_">
	<path class="st0" d="M70,15.2v9.7h-5.6v-9c0-2.3-0.8-3.8-2.8-3.8c-1.5,0-2.5,1-2.9,2.1c-0.1,0.4-0.2,0.9-0.2,1.4v9.4h-5.6
		c0,0,0.1-15.3,0-16.9h5.6v2.4c0,0,0,0,0,0.1h0v-0.1c0.7-1.1,2.1-2.8,5.1-2.8C67.2,7.6,70,10.1,70,15.2L70,15.2z M47-0.1
		c-1.9,0-3.2,1.3-3.2,2.9c0,1.6,1.2,2.9,3.1,2.9h0c2,0,3.2-1.3,3.2-2.9C50.1,1.2,48.9-0.1,47-0.1z M44.2,24.9h5.6V8h-5.6V24.9z"/>
</g>
<g id="behance">
	<path class="st0" d="M1614.2-44.1h-201.3v-50h201.4L1614.2-44.1L1614.2-44.1L1614.2-44.1z M1278.8,160.9
		c13,20.1,19.5,44.6,19.5,73.2c0,29.7-7.3,56.3-22.2,79.8c-9.5,15.6-21.2,28.7-35.4,39.3c-15.9,12.2-34.8,20.6-56.4,25.1
		c-21.7,4.5-45.3,6.8-70.6,6.8H888.5v-500H1130c60.9,1,104,18.6,129.5,53.3c15.3,21.2,22.9,46.7,22.9,76.4c0,30.6-7.7,55-23.1,73.6
		c-8.6,10.4-21.3,19.9-38.1,28.5C1246.6,126.1,1265.9,140.7,1278.8,160.9z M1003.8,82.2h105.8c21.7,0,39.3-4.1,52.9-12.4
		c13.5-8.2,20.3-22.9,20.3-44c0-23.3-8.9-38.7-26.9-46.1c-15.4-5.2-35.1-7.8-59-7.8h-93.1V82.2z M1192.9,227
		c0-26-10.6-43.9-31.8-53.6c-11.8-5.5-28.6-8.3-50-8.5h-107.3v133.2h105.7c21.7,0,38.5-2.8,50.6-8.8
		C1182,278.6,1192.9,257.8,1192.9,227z M1688.9,145.7c2.4,16.4,3.5,40.1,3.1,71.1h-260.8c1.4,36,13.9,61.2,37.4,75.6
		c14.2,9,31.4,13.4,51.6,13.4c21.3,0,38.6-5.4,52-16.4c7.3-5.9,13.7-14.1,19.2-24.6h95.6c-2.5,21.3-14,42.8-34.7,64.7
		c-32,34.8-77,52.3-134.7,52.3c-47.7,0-89.7-14.7-126.2-44.1c-36.4-29.5-54.6-77.2-54.6-143.5c0-62.1,16.4-109.7,49.3-142.8
		c33-33.2,75.6-49.7,128.1-49.7c31.1,0,59.2,5.6,84.2,16.7c25,11.2,45.6,28.8,61.8,53C1675,92.9,1684.5,117.6,1688.9,145.7
		L1688.9,145.7z M1594.8,155c-1.8-24.9-10.1-43.7-25-56.6C1555,85.5,1536.4,79,1514.3,79c-24.1,0-42.7,6.9-55.9,20.5
		c-13.3,13.6-21.6,32.1-25,55.4L1594.8,155L1594.8,155L1594.8,155z"/>
</g>
<g id="behance_1_">
	<path class="st0" d="M111.1,3.5H101V1h10.1L111.1,3.5L111.1,3.5L111.1,3.5z M94.3,13.8c0.7,1,1,2.2,1,3.7c0,1.5-0.4,2.8-1.1,4
		c-0.5,0.8-1.1,1.4-1.8,2c-0.8,0.6-1.7,1-2.8,1.3c-1.1,0.2-2.3,0.3-3.5,0.3H74.8V0h12.1c3,0.1,5.2,0.9,6.5,2.7
		c0.8,1.1,1.1,2.3,1.1,3.8c0,1.5-0.4,2.8-1.2,3.7c-0.4,0.5-1.1,1-1.9,1.4C92.7,12.1,93.7,12.8,94.3,13.8z M80.6,9.9h5.3
		c1.1,0,2-0.2,2.6-0.6c0.7-0.4,1-1.1,1-2.2c0-1.2-0.4-1.9-1.3-2.3c-0.8-0.3-1.8-0.4-3-0.4h-4.7V9.9z M90,17.1c0-1.3-0.5-2.2-1.6-2.7
		C87.9,14.1,87,14,86,14h-5.4v6.7h5.3c1.1,0,1.9-0.1,2.5-0.4C89.5,19.7,90,18.6,90,17.1z M114.8,13c0.1,0.8,0.2,2,0.2,3.6h-13
		c0.1,1.8,0.7,3.1,1.9,3.8c0.7,0.5,1.6,0.7,2.6,0.7c1.1,0,1.9-0.3,2.6-0.8c0.4-0.3,0.7-0.7,1-1.2h4.8c-0.1,1.1-0.7,2.1-1.7,3.2
		c-1.6,1.7-3.9,2.6-6.7,2.6c-2.4,0-4.5-0.7-6.3-2.2c-1.8-1.5-2.7-3.9-2.7-7.2c0-3.1,0.8-5.5,2.5-7.1c1.7-1.7,3.8-2.5,6.4-2.5
		c1.6,0,3,0.3,4.2,0.8c1.3,0.6,2.3,1.4,3.1,2.7C114.1,10.4,114.6,11.6,114.8,13L114.8,13z M110.1,13.5c-0.1-1.2-0.5-2.2-1.3-2.8
		c-0.7-0.6-1.7-1-2.8-1c-1.2,0-2.1,0.3-2.8,1c-0.7,0.7-1.1,1.6-1.3,2.8L110.1,13.5L110.1,13.5L110.1,13.5z"/>
</g>
<g id="dribbble">
	<path class="st0" d="M558.5-114.9c-137.8,0-250,112.2-250,250s112.2,250,250,250s250-112.2,250-250S696.3-114.9,558.5-114.9z
		 M723.8,0.4c29.8,36.3,47.7,82.6,48.2,133c-7.1-1.5-77.6-15.8-148.7-6.9l-4.6-11c-4.5-10.4-9.2-20.7-14.2-30.9
		C683.5,52.4,719.3,6.5,723.8,0.4L723.8,0.4z M558.5-78.1c54.2,0,103.8,20.3,141.5,53.8c-3.8,5.5-35.9,48.7-111.9,77.1
		c-35-64.3-73.8-117.1-79.7-125C524.9-76.1,541.6-78.1,558.5-78.1z M467.7-57.8c5.6,7.7,43.8,60.6,79.2,123.5
		c-99.9,26.5-187.8,26.2-197.4,26C363.3,25.4,408-29.6,467.7-57.8L467.7-57.8z M344.9,135.4l0.1-6.5c9.3,0.2,112.8,1.5,219.4-30.4
		c6.1,11.9,11.9,24,17.3,36.3l-8.4,2.5c-110,35.6-168.6,132.6-173.5,140.9C365.8,240.3,345,190.3,344.9,135.4L344.9,135.4z
		 M558.5,348.9c-49.3,0-94.8-16.8-131.1-45.1c3.8-7.8,47.1-91.4,167.5-133.3l1.4-0.5c30,77.9,42.3,143.2,45.6,161.9
		C616.3,342.9,588.1,349,558.5,348.9L558.5,348.9z M677.8,312.4c-2.2-13-13.6-75.5-41.5-152.2c66.9-10.7,125.7,6.8,133,9.2
		C759.8,228.7,725.8,280.1,677.8,312.4z"/>
</g>
<g id="dribbble_1_">
	<path class="st0" d="M12.5,0C5.6,0,0,5.6,0,12.5S5.6,25,12.5,25S25,19.4,25,12.5S19.4,0,12.5,0z M20.8,5.8c1.5,1.8,2.4,4.1,2.4,6.6
		c-0.4-0.1-3.9-0.8-7.4-0.3l-0.2-0.6c-0.2-0.5-0.5-1-0.7-1.5C18.8,8.4,20.5,6.1,20.8,5.8L20.8,5.8z M12.5,1.8c2.7,0,5.2,1,7.1,2.7
		C19.4,4.8,17.8,7,14,8.4c-1.8-3.2-3.7-5.9-4-6.3C10.8,1.9,11.7,1.8,12.5,1.8z M8,2.9c0.3,0.4,2.2,3,4,6.2c-5,1.3-9.4,1.3-9.9,1.3
		C2.7,7,5,4.3,8,2.9L8,2.9z M1.8,12.5l0-0.3c0.5,0,5.6,0.1,11-1.5c0.3,0.6,0.6,1.2,0.9,1.8l-0.4,0.1c-5.5,1.8-8.4,6.6-8.7,7
		C2.9,17.8,1.8,15.3,1.8,12.5L1.8,12.5z M12.5,23.2c-2.5,0-4.7-0.8-6.6-2.3c0.2-0.4,2.4-4.6,8.4-6.7l0.1,0c1.5,3.9,2.1,7.2,2.3,8.1
		C15.4,22.9,14,23.2,12.5,23.2L12.5,23.2z M18.5,21.4c-0.1-0.6-0.7-3.8-2.1-7.6c3.3-0.5,6.3,0.3,6.6,0.5
		C22.6,17.2,20.9,19.8,18.5,21.4z"/>
</g>
</svg>
