<svg xmlns="http://www.w3.org/2000/svg" viewBox="0 0 803.58 500"><defs><style>.cls-1{fill:#10223c;}</style></defs><title>behance</title><g id="Camada_2" data-name="Camada 2"><g id="behance"><path class="cls-1" d="M725.69,70.76H524.34v-50H725.71v50ZM390.3,275.84q19.49,30.2,19.48,73.24c0,29.67-7.32,56.28-22.21,79.79a138.26,138.26,0,0,1-35.37,39.27q-23.86,18.35-56.42,25.1a348.9,348.9,0,0,1-70.6,6.76H0V0H241.47c60.87,1,104,18.62,129.5,53.26q22.93,31.86,22.86,76.35c0,30.57-7.66,55-23.1,73.61q-12.89,15.63-38.07,28.45C358.1,241,377.4,255.65,390.3,275.84Zm-275-78.72h105.8c21.75,0,39.32-4.13,52.86-12.39s20.28-22.91,20.28-44c0-23.26-8.94-38.7-26.86-46.13-15.4-5.16-35.1-7.82-59-7.82H115.31ZM304.44,341.94c0-26-10.62-43.93-31.81-53.56-11.84-5.48-28.56-8.28-50-8.47H115.31V413.15H221c21.71,0,38.51-2.84,50.64-8.77C293.47,393.48,304.44,372.74,304.44,341.94Zm496-81.34c2.44,16.36,3.54,40.09,3.09,71.12H542.71q2.16,54,37.43,75.56c14.22,9,31.45,13.45,51.62,13.45,21.28,0,38.62-5.38,52-16.44,7.27-5.86,13.69-14.13,19.23-24.57h95.58q-3.75,31.89-34.69,64.73-48.06,52.24-134.69,52.29-71.52,0-126.17-44.07T448.38,309.19q0-93.19,49.28-142.79c33-33.16,75.62-49.67,128.13-49.67q46.69,0,84.22,16.75t61.82,53c14.7,21.33,24.15,46,28.56,74.08Zm-94.08,9.33q-2.62-37.34-25-56.6t-55.5-19.39c-24.07,0-42.66,6.93-55.87,20.54s-21.57,32.06-25,55.45Z"/></g></g></svg>