<svg xmlns="http://www.w3.org/2000/svg" viewBox="0 0 500 500">
  <path fill="#10223c" d="M250 0C112.16 0 0 112.16 0 250s112.16 250 250 250 250-112.16 250-250S387.84 0 250 0zm165.28 115.28a212.5 212.5 0 0 1 48.19 133c-7.06-1.5-77.6-15.81-148.69-6.87l-4.59-11q-6.69-15.64-14.19-30.94c79-32.22 114.75-78.1 119.25-84.19zM250 36.78a212.51 212.51 0 0 1 141.53 53.81c-3.81 5.47-35.94 48.66-111.87 77.13a1139.39 1139.39 0 0 0-79.66-125 213.45 213.45 0 0 1 50-5.94zm-90.78 20.28a1364.91 1364.91 0 0 1 79.16 123.5C138.5 207.09 50.53 206.72 41 206.59A214.31 214.31 0 0 1 159.22 57.06zM36.44 250.31l.09-6.53c9.34.22 112.84 1.53 219.44-30.37q9.2 17.86 17.34 36.25l-8.44 2.53C154.78 287.78 96.19 384.84 91.31 393.09a212.94 212.94 0 0 1-54.87-142.78zM250 463.84a212.36 212.36 0 0 1-131.06-45.06c3.81-7.78 47.06-91.37 167.5-133.34l1.4-.47c30 77.87 42.35 143.19 45.57 161.94A212 212 0 0 1 250 463.84zm119.34-36.5c-2.19-13-13.59-75.5-41.47-152.25 66.91-10.71 125.69 6.85 133 9.16a213.92 213.92 0 0 1-91.56 143.09z" data-name="Camada 2"/>
</svg>
