<svg xmlns="http://www.w3.org/2000/svg" viewBox="0 0 500 477.78">
  <path fill="#10223c" d="M500 292.93v184.85H392.83V305.31c0-43.33-15.5-72.9-54.29-72.9-29.61 0-47.23 19.93-55 39.2-2.83 6.9-3.56 16.49-3.56 26.13v180H172.8s1.44-292.11 0-322.38H280v45.7c-.22.34-.5.71-.7 1h.7v-1c14.24-21.94 39.68-53.27 96.61-53.27 70.53 0 123.4 46.07 123.4 145.1zM60.66 0C24 0 0 24.06 0 55.69c0 30.94 23.29 55.73 59.24 55.73H60c37.39 0 60.64-24.78 60.64-55.73C119.88 24.06 97.34 0 60.66 0zM6.37 477.78h107.16V155.4H6.37z" data-name="Camada 2"/>
</svg>
